<?xml version="1.0" standalone="no"?>
<!DOCTYPE svg PUBLIC "-//W3C//DTD SVG 20010904//EN"
 "http://www.w3.org/TR/2001/REC-SVG-20010904/DTD/svg10.dtd">
<svg version="1.0" xmlns="http://www.w3.org/2000/svg"
 width="3840.000000pt" height="2160.000000pt" viewBox="0 0 3840.000000 2160.000000"
 preserveAspectRatio="xMidYMid meet">

<g transform="translate(0.000000,2160.000000) scale(0.100000,-0.100000)"
fill="#000000" stroke="none">
<path d="M21077 16875 c-243 -30 -464 -95 -672 -194 -225 -108 -389 -223 -555
-391 -229 -231 -376 -504 -426 -790 -22 -127 -14 -396 15 -520 59 -255 157
-429 350 -620 170 -169 387 -309 689 -444 64 -29 282 -119 482 -199 563 -225
726 -304 917 -448 191 -145 299 -298 354 -504 18 -65 22 -108 22 -230 0 -157
-13 -247 -55 -370 -133 -389 -489 -673 -974 -777 -97 -20 -135 -23 -344 -22
-267 0 -345 12 -565 85 -228 76 -473 216 -606 348 -105 104 -148 207 -213 499
l-33 147 -79 -4 c-43 -2 -81 -5 -83 -7 -2 -2 8 -225 23 -496 14 -271 26 -503
26 -515 0 -18 16 -28 103 -61 332 -129 752 -230 1109 -268 227 -24 582 -15
778 19 554 98 976 343 1276 742 82 110 197 329 240 459 143 435 97 920 -118
1246 -157 239 -374 413 -737 593 -178 89 -269 127 -821 342 -432 170 -675 302
-838 459 -98 94 -137 145 -186 242 -64 127 -81 208 -80 379 0 166 19 267 72
394 258 614 1157 807 1958 421 100 -48 129 -68 172 -114 87 -96 164 -277 216
-506 l23 -105 83 -1 83 -2 -6 137 c-4 75 -11 285 -17 466 -6 182 -13 344 -16
361 -4 30 -8 32 -107 62 -233 71 -559 141 -827 177 -163 22 -498 28 -633 10z"/>
<path d="M320 16707 l0 -74 88 -13 c287 -42 369 -116 416 -372 36 -192 38
-306 43 -1985 6 -2261 -3 -2522 -96 -2719 -55 -116 -135 -166 -331 -207 l-115
-23 -3 -74 -3 -73 48 6 c26 4 158 14 293 24 425 29 1144 18 1463 -23 l47 -7 0
75 0 74 -77 13 c-104 17 -216 55 -267 91 -94 64 -138 178 -168 440 -15 134
-23 3688 -9 4020 25 565 79 670 378 730 55 11 111 20 122 20 19 0 21 6 21 75
l0 76 -227 -8 c-294 -10 -1080 -10 -1385 0 l-238 8 0 -74z"/>
<path d="M4575 15894 c-16 -2 -82 -11 -145 -20 -153 -21 -387 -81 -532 -138
-334 -129 -618 -314 -868 -565 -689 -693 -880 -1741 -479 -2631 492 -1094
1761 -1669 2939 -1331 804 231 1430 844 1665 1631 103 345 123 757 54 1117
-153 800 -719 1471 -1499 1776 -175 68 -322 108 -530 143 -91 15 -531 28 -605
18z m550 -244 c412 -88 735 -304 982 -657 121 -172 248 -472 307 -724 102
-433 108 -1017 15 -1459 -202 -953 -837 -1494 -1709 -1457 -416 18 -761 166
-1040 447 -179 179 -298 364 -399 620 -124 312 -182 662 -182 1085 0 467 68
833 220 1185 152 350 439 662 754 822 141 71 352 136 512 157 121 17 425 6
540 -19z"/>
<path d="M6860 15786 l0 -65 43 -11 c97 -25 206 -65 270 -98 84 -43 139 -104
196 -215 23 -45 428 -1027 899 -2182 l858 -2100 65 -3 64 -3 560 1325 560
1325 16 -32 c8 -18 258 -614 554 -1324 l539 -1293 81 0 81 0 246 638 c266 687
692 1789 1114 2882 146 377 288 732 316 789 87 180 178 253 358 288 l78 16 4
59 c2 33 1 61 -2 63 -3 1 -133 -2 -290 -7 -157 -4 -440 -5 -630 -1 -190 5
-358 8 -375 8 l-30 0 4 -60 c2 -33 4 -61 5 -61 0 -1 58 -9 127 -18 207 -26
297 -64 333 -139 19 -41 21 -150 5 -229 -11 -52 -1155 -3206 -1168 -3220 -8
-9 -1326 3156 -1342 3225 -6 26 -9 74 -7 106 10 142 115 223 339 261 l67 12 7
55 c4 30 3 59 -2 63 -4 4 -159 3 -343 -1 -184 -5 -531 -6 -770 -2 -239 5 -451
8 -470 8 l-35 0 -3 -61 -3 -61 113 -28 c193 -48 267 -90 337 -194 78 -117 127
-228 352 -801 l231 -589 -417 -993 c-230 -546 -420 -997 -423 -1002 -2 -5 -8
-2 -12 5 -26 47 -1273 3190 -1286 3241 -38 149 17 252 165 308 42 16 199 50
232 50 5 0 9 30 9 66 l0 66 -87 -8 c-115 -10 -1355 -10 -1455 0 l-78 8 0 -66z"/>
<path d="M14180 15802 c0 -28 5 -54 13 -59 6 -5 80 -27 162 -48 200 -50 268
-78 326 -134 59 -58 75 -108 60 -192 -10 -61 -1519 -3598 -1613 -3781 -81
-160 -141 -210 -325 -274 l-53 -18 0 -64 0 -64 58 6 c308 33 889 33 1145 0
l47 -6 0 64 0 65 -87 13 c-265 38 -364 122 -335 281 6 30 136 379 290 775
l279 719 773 0 773 0 265 -730 c145 -401 269 -758 275 -792 26 -149 -52 -217
-291 -254 l-80 -12 -7 -60 c-3 -32 -4 -61 -2 -63 2 -3 71 0 153 6 362 26 1146
22 1417 -7 l58 -6 -3 63 -3 62 -95 24 c-202 51 -329 149 -418 324 -24 47 -401
1010 -838 2140 -437 1130 -798 2058 -802 2061 -4 3 -110 2 -237 -3 -222 -8
-730 -4 -847 8 l-58 6 0 -50z m1101 -1541 c164 -453 299 -826 299 -828 0 -1
-293 -3 -651 -3 -616 0 -651 1 -646 18 3 9 155 396 338 859 329 829 334 842
347 810 8 -17 149 -403 313 -856z"/>
<path d="M34857 15844 c-4 -4 -7 -33 -7 -64 l0 -57 92 -17 c123 -23 180 -49
232 -107 54 -60 89 -161 108 -309 19 -152 19 -3400 0 -3571 -31 -279 -78 -341
-284 -380 -57 -11 -113 -22 -125 -25 -21 -4 -23 -10 -23 -66 l0 -61 133 6
c569 27 935 29 1817 13 492 -9 927 -16 967 -16 l72 0 11 38 c44 156 220 801
220 809 0 9 -119 48 -125 41 -2 -2 -16 -38 -33 -80 -45 -112 -103 -198 -189
-278 -204 -191 -538 -265 -1138 -254 -229 4 -627 22 -662 30 l-23 4 0 995 0
995 318 0 c385 0 736 -14 869 -34 170 -25 274 -78 321 -163 23 -42 47 -131 57
-216 l6 -48 52 3 51 3 2 300 c2 165 8 379 14 475 5 96 13 223 17 283 l6 107
-65 0 -65 0 -7 -69 c-20 -219 -111 -321 -326 -365 -134 -27 -336 -36 -797 -36
l-453 0 0 920 0 919 33 5 c147 24 830 35 1012 16 420 -43 589 -145 719 -434
l42 -92 55 18 55 18 -28 193 c-15 105 -35 264 -44 352 -9 88 -18 170 -20 183
l-5 23 -177 -8 c-225 -10 -2409 -10 -2562 1 -64 4 -119 4 -123 0z"/>
<path d="M23046 15788 c-9 -62 -66 -768 -66 -807 l0 -32 52 3 53 3 36 110
c107 328 241 438 582 475 55 6 289 12 520 13 l422 1 0 -1964 c0 -1858 -1
-1969 -18 -2030 -22 -81 -58 -134 -112 -166 -52 -30 -169 -61 -266 -69 -127
-11 -119 -5 -119 -86 l0 -71 83 6 c427 33 1127 33 1555 0 l82 -6 0 65 c0 40
-5 68 -12 74 -7 6 -48 13 -90 16 -91 8 -210 33 -253 54 -90 45 -138 131 -155
281 -6 55 -10 787 -10 1996 l0 1909 433 -7 c237 -3 473 -11 522 -17 235 -27
375 -99 465 -239 34 -54 90 -202 110 -292 l13 -58 64 0 c62 0 63 0 63 28 0 31
-32 846 -34 848 -1 1 -170 -2 -376 -6 -206 -5 -593 -11 -860 -15 -267 -3 -514
-8 -550 -11 -71 -5 -1811 22 -2007 31 l-122 6 -5 -43z"/>
<path d="M27816 15769 c-4 -34 -6 -63 -4 -65 2 -2 69 -17 149 -33 228 -48 318
-82 376 -143 53 -55 66 -124 42 -213 -14 -51 -1538 -3613 -1591 -3720 -86
-172 -148 -233 -298 -295 -41 -18 -81 -39 -87 -48 -7 -9 -13 -35 -13 -59 l0
-43 113 7 c146 10 923 10 1050 0 l97 -7 0 63 0 64 -87 12 c-176 24 -258 55
-311 115 -37 42 -46 85 -40 171 5 52 34 134 162 452 87 213 216 535 289 716
l132 327 771 0 771 0 267 -737 c229 -631 269 -746 273 -808 4 -54 2 -78 -10
-102 -37 -71 -121 -109 -289 -133 l-88 -12 0 -64 0 -65 123 8 c159 10 1203 10
1375 0 l132 -8 0 66 c0 56 -2 65 -18 65 -41 0 -181 42 -251 75 -92 44 -188
138 -248 245 -27 47 -337 845 -836 2149 l-794 2075 -159 -5 c-209 -5 -920 -1
-960 6 l-31 5 -7 -61z m1102 -1529 l289 -815 -635 -3 c-349 -1 -637 0 -640 2
-4 4 94 254 509 1301 l162 410 14 -40 c7 -22 143 -407 301 -855z"/>
<path d="M30570 15822 c0 -4 -16 -194 -35 -421 -19 -226 -35 -421 -35 -432 0
-18 6 -20 62 -17 l62 3 27 90 c104 348 225 453 572 495 73 9 872 18 955 11 15
-1 18 -3638 2 -3821 -12 -141 -40 -238 -82 -286 -58 -66 -170 -106 -335 -120
-45 -4 -86 -10 -92 -14 -6 -3 -14 -37 -18 -74 l-6 -68 89 6 c448 33 1164 33
1567 0 l78 -6 -3 73 -3 74 -90 8 c-119 10 -239 41 -295 75 -56 35 -95 97 -117
187 -16 64 -17 227 -20 2024 l-4 1954 438 -7 c241 -3 478 -11 528 -16 255 -29
400 -114 482 -281 33 -66 77 -194 91 -264 l8 -40 64 0 64 0 -2 50 c-8 203 -35
820 -36 821 0 1 -165 -2 -366 -6 -527 -12 -1364 -25 -1585 -25 -341 0 -1565
20 -1827 31 -76 2 -138 1 -138 -4z"/>
<path d="M26060 9530 c-395 -46 -754 -213 -1016 -475 -173 -172 -270 -332
-340 -561 -26 -84 -28 -100 -28 -279 0 -175 2 -198 27 -290 110 -409 408 -664
1087 -930 560 -219 688 -277 850 -382 171 -112 295 -261 347 -417 24 -73 27
-95 27 -226 0 -103 -5 -165 -17 -213 -96 -385 -407 -653 -863 -744 -121 -24
-383 -24 -512 0 -217 40 -466 147 -634 272 -139 102 -186 193 -237 449 l-27
141 -72 3 -72 3 0 -43 c0 -55 49 -811 53 -814 9 -9 200 -78 302 -109 253 -77
532 -134 760 -155 556 -51 1087 112 1439 442 339 317 506 771 441 1198 -59
391 -299 671 -769 899 -133 64 -213 97 -696 286 -538 211 -763 382 -857 650
-25 73 -27 92 -27 225 0 194 28 297 119 440 130 204 368 340 663 380 124 17
356 8 487 -20 221 -47 474 -157 546 -239 68 -77 127 -221 169 -411 l16 -75 74
-1 73 -1 -6 96 c-3 53 -12 234 -18 403 -7 170 -16 313 -20 319 -15 25 -441
124 -687 160 -155 22 -464 33 -582 19z"/>
<path d="M540 9403 c0 -71 -9 -63 110 -83 128 -22 203 -73 247 -167 57 -124
55 -83 63 -1523 5 -912 11 -1356 19 -1425 43 -370 113 -614 219 -770 62 -91
197 -232 297 -310 333 -260 758 -389 1220 -372 726 27 1323 381 1550 918 45
106 82 232 112 376 14 68 17 250 23 1463 6 1242 8 1392 23 1455 54 228 132
307 350 354 l82 17 3 65 3 64 -113 -7 c-146 -8 -977 -8 -1131 0 l-117 7 0 -62
c0 -57 2 -63 23 -67 12 -3 83 -17 157 -31 259 -50 326 -108 365 -316 34 -180
45 -2308 14 -2719 -21 -283 -73 -507 -146 -628 -115 -189 -309 -356 -522 -448
-150 -65 -254 -86 -457 -91 -201 -6 -311 6 -468 52 -245 71 -475 233 -603 425
-26 39 -60 90 -76 113 -53 81 -105 255 -132 449 -30 218 -37 521 -32 1583 3
907 6 1053 20 1138 51 303 129 403 355 453 l82 19 0 61 0 61 -582 -4 c-321 -2
-667 -1 -771 4 l-187 8 0 -62z"/>
<path d="M5062 9415 l3 -58 132 -38 c277 -81 412 -173 487 -332 59 -128 57
-40 54 -1907 -3 -1610 -5 -1708 -22 -1765 -63 -211 -181 -299 -478 -360 -27
-5 -28 -8 -28 -61 l0 -56 233 9 c295 10 607 10 910 0 l237 -8 0 55 0 55 -57
11 c-175 33 -315 102 -379 187 -37 48 -69 127 -85 211 -16 80 -25 3157 -9
3147 6 -4 756 -845 1666 -1870 l1655 -1864 52 -5 c29 -3 82 -8 120 -11 l67 -7
0 2029 c0 1234 4 2067 10 2128 24 245 97 330 367 422 l83 28 0 58 0 57 -27 -7
c-37 -10 -1250 -10 -1286 0 l-28 8 3 -57 3 -57 105 -18 c260 -44 359 -118 412
-305 l23 -79 3 -1545 c1 -871 -1 -1540 -6 -1535 -5 6 -724 816 -1599 1800
l-1590 1791 -109 -9 c-116 -9 -863 -2 -902 9 -22 6 -23 5 -20 -51z"/>
<path d="M10600 9406 c0 -74 -11 -65 110 -86 147 -25 211 -63 254 -153 67
-139 76 -353 76 -1987 0 -1253 -8 -1724 -30 -1867 -35 -227 -98 -302 -288
-339 -42 -8 -87 -17 -99 -20 -21 -4 -23 -10 -23 -70 0 -57 2 -65 18 -60 45 13
477 30 747 30 231 0 663 -16 750 -28 6 0 11 27 13 61 l3 62 -38 6 c-97 16
-202 48 -243 73 -87 54 -130 168 -150 399 -17 187 -25 2471 -11 3033 14 569
29 669 112 764 47 53 105 78 235 100 49 9 90 20 92 25 3 9 105 -10 168 -32
107 -38 184 -104 244 -206 30 -52 149 -308 317 -686 208 -464 882 -2079 1501
-3590 l49 -120 73 0 72 0 814 1950 c448 1073 835 2002 860 2065 169 419 277
555 480 600 69 16 248 30 254 21 3 -4 50 -13 105 -19 127 -15 166 -27 214 -68
48 -42 78 -104 99 -208 16 -74 17 -245 17 -1921 0 -1739 -1 -1845 -18 -1924
-39 -180 -90 -224 -304 -259 l-108 -19 -3 -63 -3 -63 158 7 c644 26 876 27
1851 10 568 -9 987 -13 991 -8 4 5 20 56 35 114 15 58 66 241 112 408 46 167
84 309 84 315 0 11 -128 53 -135 45 -1 -2 -17 -39 -35 -83 -132 -322 -363
-464 -840 -516 -146 -16 -585 -16 -890 0 -129 7 -241 14 -247 16 -10 4 -13
213 -13 1001 l0 997 468 -6 c481 -7 638 -16 771 -43 198 -41 281 -134 297
-334 l7 -80 63 0 63 0 0 328 c0 289 17 660 37 800 l6 42 -64 0 -65 0 -15 -94
c-27 -164 -79 -244 -193 -297 -136 -63 -324 -79 -926 -79 l-447 0 -7 278 c-9
311 -2 1548 8 1559 20 20 600 41 867 32 361 -13 579 -73 722 -199 71 -62 148
-185 199 -317 8 -22 9 -22 54 -6 38 15 45 22 45 44 0 21 -59 497 -86 688 l-6
44 -66 -7 c-94 -9 -1992 -15 -2432 -7 -201 3 -366 3 -368 -1 -2 -5 -314 -8
-693 -8 l-690 0 3 -46 3 -46 87 -32 c159 -60 219 -117 226 -214 2 -32 -3 -84
-10 -118 -13 -61 -1199 -3244 -1208 -3244 -9 0 -1252 2976 -1287 3081 -108
318 -47 446 239 508 l83 17 3 59 c3 56 2 57 -20 51 -36 -11 -1556 -20 -1570
-9 -8 5 -101 6 -243 0 -239 -9 -1223 -2 -1262 9 -22 6 -23 4 -23 -60z m6380
-1 c0 -25 -4 -45 -10 -45 -5 0 -10 20 -10 45 0 25 5 45 10 45 6 0 10 -20 10
-45z"/>
<path d="M21790 9464 c-41 -2 -208 -13 -370 -25 -355 -25 -422 -26 -747 -15
l-253 8 0 -54 0 -55 70 -12 c138 -22 231 -75 285 -162 32 -50 62 -147 75 -242
14 -106 14 -3407 0 -3532 -33 -294 -127 -410 -362 -448 l-68 -11 0 -55 0 -54
167 6 c91 4 438 7 770 7 l603 0 0 48 0 49 -82 17 c-121 26 -201 67 -243 124
-99 136 -118 356 -113 1312 l3 665 95 -1 c134 -1 233 -26 359 -90 297 -152
477 -370 1023 -1237 286 -454 466 -715 580 -839 l43 -47 478 -3 478 -3 -3 50
-3 50 -45 7 c-306 50 -364 103 -699 646 -165 268 -469 723 -634 950 -177 242
-304 398 -434 531 -61 64 -111 117 -109 118 1 2 90 32 197 68 311 105 479 196
615 332 210 210 301 525 249 866 -34 227 -127 410 -289 572 -231 231 -596 384
-1051 440 -120 15 -449 26 -585 19z m446 -259 c313 -55 541 -210 673 -456 146
-274 161 -700 33 -980 -130 -289 -409 -474 -802 -535 -161 -24 -468 -17 -585
14 l-30 8 -3 942 -2 941 65 20 c57 18 164 42 245 54 69 11 325 6 406 -8z"/>
<path d="M28110 9406 c0 -74 -11 -65 110 -86 204 -35 266 -103 300 -330 21
-140 29 -632 29 -1820 0 -1172 -8 -1704 -28 -1850 -16 -110 -48 -203 -87 -248
-51 -60 -86 -73 -301 -118 -21 -4 -23 -10 -23 -67 l0 -62 102 7 c474 31 798
33 1236 5 101 -7 186 -8 189 -4 3 5 2 33 -2 63 -5 45 -10 55 -28 58 -207 43
-256 62 -305 122 -34 40 -66 135 -82 234 -26 166 -31 602 -27 2030 3 994 8
1496 16 1560 27 227 65 319 152 369 45 25 84 36 245 67 18 3 23 13 29 60 4 31
3 59 -2 63 -4 4 -111 3 -238 -2 -240 -9 -1223 -2 -1262 9 -22 6 -23 4 -23 -60z"/>
<path d="M29906 9418 c-10 -81 -66 -769 -66 -800 0 -27 2 -28 53 -28 l52 0 28
93 c37 123 105 261 158 321 56 63 129 109 223 141 147 49 235 57 714 62 l442
5 0 -1924 c0 -1286 -3 -1952 -11 -2008 -15 -128 -64 -216 -139 -255 -57 -29
-268 -73 -357 -75 -9 0 -13 -20 -13 -66 l0 -65 158 8 c201 10 1221 10 1416 0
l148 -8 -4 60 c-2 33 -7 63 -9 66 -3 2 -56 11 -119 20 -275 36 -354 105 -380
333 -6 55 -10 788 -10 2000 l0 1912 359 0 c198 0 418 -5 488 -11 422 -35 567
-142 665 -491 l33 -118 63 0 62 0 0 37 c0 41 -29 762 -33 808 l-2 29 -395 -4
c-599 -7 -3258 -4 -3397 3 l-122 7 -5 -52z"/>
<path d="M33937 9443 c-4 -3 -7 -28 -7 -54 l0 -48 43 -11 c23 -6 60 -16 82
-22 57 -14 110 -43 155 -84 89 -81 289 -370 854 -1234 l599 -915 -12 -850 c-7
-467 -16 -881 -21 -919 -31 -227 -81 -276 -334 -327 -77 -16 -142 -29 -143
-29 -2 0 -3 -25 -3 -56 l0 -56 303 9 c382 10 722 10 1095 0 l292 -8 0 55 c0
50 -2 56 -22 61 -13 2 -74 16 -136 30 -119 26 -186 51 -229 85 -70 55 -115
157 -132 301 -6 46 -15 448 -21 892 l-12 808 587 907 c629 972 758 1164 831
1236 53 53 118 89 219 122 l70 22 3 46 3 46 -580 0 -581 0 0 -45 c0 -28 5 -47
13 -49 6 -2 48 -11 92 -21 107 -23 189 -60 226 -103 29 -33 31 -39 27 -101 -3
-49 -13 -86 -40 -142 -19 -41 -232 -417 -473 -835 -242 -417 -448 -776 -459
-796 -12 -21 -24 -38 -28 -38 -11 0 -1041 1673 -1060 1723 -10 26 -18 67 -18
91 0 80 49 117 230 172 l105 32 3 56 3 56 -759 0 c-417 0 -762 -3 -765 -7z"/>
</g>
</svg>
