<?xml version="1.0" standalone="no"?>
<!DOCTYPE svg PUBLIC "-//W3C//DTD SVG 20010904//EN"
 "http://www.w3.org/TR/2001/REC-SVG-20010904/DTD/svg10.dtd">
<svg version="1.0" xmlns="http://www.w3.org/2000/svg"
 width="505.000000pt" height="360.000000pt" viewBox="0 0 505.000000 360.000000"
 preserveAspectRatio="xMidYMid meet">

<g transform="translate(0.000000,360.000000) scale(0.100000,-0.100000)"
fill="#000000" stroke="none">
<path d="M1860 2754 c-45 -20 -68 -41 -91 -86 -70 -138 63 -298 215 -257 56
15 93 43 116 89 24 46 26 129 6 168 -44 85 -157 125 -246 86z"/>
<path d="M4768 2374 c-36 -19 -48 -43 -48 -94 0 -33 6 -48 29 -71 65 -64 171
-20 171 71 0 52 -13 76 -50 95 -36 19 -67 19 -102 -1z"/>
<path d="M864 1750 c-44 -14 -102 -77 -115 -124 -42 -156 119 -287 266 -216
169 82 119 336 -68 346 -29 2 -66 -1 -83 -6z"/>
<path d="M3610 1603 c-183 -96 -183 -352 0 -446 48 -25 64 -28 126 -25 92 4
155 40 200 116 52 86 51 183 -2 269 -44 71 -108 107 -198 111 -63 3 -77 0
-126 -25z"/>
</g>
</svg>
